<svg xmlns="http://www.w3.org/2000/svg" x="0px" y="0px"
width="26" height="26"
viewBox="0 0 172 172"
style=" fill:#000000;"><g transform=""><g fill="none" fill-rule="nonzero" stroke="none" stroke-width="1" stroke-linecap="butt" stroke-linejoin="miter" stroke-miterlimit="10" stroke-dasharray="" stroke-dashoffset="0" font-family="none" font-weight="none" font-size="none" text-anchor="none" style="mix-blend-mode: normal"><path d="M0,172v-172h172v172z" fill="#ffffff"></path><g fill="#34495e"><path d="M80.625,0c-3.97956,0 -6.61538,2.63582 -6.61538,6.61538c0,2.63582 1.31791,4.67728 3.30769,5.99519c1.31791,0.67188 2.63582,1.9381 3.30769,3.92788v3.72115c-5.09074,0.41346 -9.97476,1.18871 -14.67788,2.6875c-0.12921,-1.21454 0.38762,-2.66166 1.44712,-3.72115c1.31791,-1.31791 2.14483,-4.00541 0.82692,-5.99519c-1.31791,-3.30769 -4.75481,-4.6256 -8.0625,-3.30769l-9.92308,3.92788c-3.30769,1.31791 -4.6256,4.75481 -3.30769,8.0625c0.67188,1.98978 2.73919,3.25601 5.375,3.92788c1.4988,0 2.55829,0.41346 3.30769,1.44712c-4.57392,2.3774 -8.73437,5.34916 -12.61058,8.68269l-2.6875,-2.89423c-0.67187,-1.98978 -0.67187,-4.05709 0,-5.375c0.67188,-2.63581 0.12921,-4.6256 -1.86058,-6.61538c-2.63581,-2.63581 -6.66706,-2.63581 -9.30288,0l-8.0625,8.0625c-2.63581,2.63582 -2.63581,6.66707 0,9.30288c1.98978,1.98978 3.97957,1.91226 6.61538,1.24038c1.31791,0 3.4369,-0.07753 4.75481,1.24038l2.89423,2.6875c-3.10096,3.69531 -5.8143,7.67488 -8.0625,11.99038c-1.03365,-0.90445 -1.44712,-2.32572 -1.44712,-3.30769c-0.67187,-2.63581 -1.9381,-4.70312 -3.92788,-5.375c-3.30769,-1.31791 -6.74459,0 -8.0625,3.30769l-3.92788,9.92308c-1.31791,3.30769 0,6.74459 3.30769,8.0625c1.98978,0.67188 4.67728,0.49099 5.99519,-0.82692c1.05949,-1.05949 2.50661,-1.57632 3.72115,-1.44712c-1.52464,4.78065 -2.50661,9.71635 -2.89423,14.88462l-3.51442,-0.20673c-1.98978,0 -3.25601,-1.31791 -3.92788,-3.30769c-1.31791,-1.98978 -3.35937,-3.92788 -5.99519,-3.92788c-3.97956,0 -6.61538,2.63582 -6.61538,6.61538v11.37019c0,3.97957 2.63582,6.61538 6.61538,6.61538c2.63582,0 4.67728,-1.31791 5.99519,-3.30769c0.67188,-1.31791 1.9381,-2.63581 3.92788,-3.30769h3.72115c0.41346,5.09074 1.18871,9.97476 2.6875,14.67788c-1.21454,0.12921 -2.66166,-0.38762 -3.72115,-1.44712c-1.31791,-1.31791 -4.00541,-2.14483 -5.99519,-0.82692c-3.30769,1.31791 -4.6256,4.75481 -3.30769,8.0625l3.92788,9.92308c1.31791,3.30769 4.75481,4.6256 8.0625,3.30769c1.98978,-0.67187 3.25601,-2.73918 3.92788,-5.375c0,-1.49879 0.41346,-2.55829 1.44712,-3.30769c2.3774,4.57392 5.34916,8.73438 8.68269,12.61058l-2.89423,2.6875c-1.98978,0.67188 -4.05709,0.67188 -5.375,0c-2.63581,-0.67187 -4.6256,-0.12921 -6.61538,1.86058c-2.63581,2.63582 -2.63581,6.66707 0,9.30288l8.0625,8.0625c2.63582,2.63582 6.66707,2.63582 9.30288,0c1.98978,-1.98978 1.91226,-3.97956 1.24038,-6.61538c0,-1.31791 -0.07753,-3.4369 1.24038,-4.75481l2.6875,-2.89423c3.74699,3.15265 7.82993,5.78846 12.19712,8.0625c-0.85276,0.98197 -2.3774,1.4988 -3.51442,2.06731c-2.63581,0 -4.70312,1.31791 -5.375,3.30769c-1.31791,3.30769 0,6.74459 3.30769,8.0625l9.92308,3.92788c3.30769,1.31791 6.74459,0 8.0625,-3.30769c0.67188,-1.98978 0.49099,-4.67728 -0.82692,-5.99519c-1.00781,-1.00781 -0.98197,-2.32572 -1.03365,-3.51442c4.65144,1.44712 9.45794,2.29988 14.47115,2.6875l-0.20673,3.51442c0,1.98978 -1.31791,3.25601 -3.30769,3.92788c-1.98978,1.31791 -3.92788,3.35938 -3.92788,5.99519c0,3.97957 2.63582,6.61538 6.61538,6.61538h11.37019c3.97957,0 6.61538,-2.63581 6.61538,-6.61538c0,-2.63581 -1.31791,-4.67728 -3.30769,-5.99519c-1.31791,-0.67187 -2.63581,-1.9381 -3.30769,-3.92788v-3.72115c4.80649,-0.38762 9.38041,-1.11118 13.85096,-2.48077c-0.15504,1.00781 -0.62019,2.06731 -1.44712,2.89423c-0.67187,1.98978 -1.31791,4.6256 0,6.61538c1.31791,3.30769 4.75481,4.6256 8.0625,3.30769l9.92308,-3.92788c3.30769,-1.31791 4.6256,-4.75481 3.30769,-8.0625c-0.67187,-1.98978 -2.73918,-3.25601 -5.375,-3.92788c-1.49879,0 -2.55829,-0.41346 -3.30769,-1.44712c4.31551,-2.2482 8.29507,-4.96154 11.99038,-8.0625l2.6875,2.89423c1.31791,1.31791 1.29207,3.38522 0.62019,5.375c-0.67187,1.98978 -0.12921,4.00541 1.86058,5.99519c2.63582,2.63582 6.66707,2.63582 9.30288,0l8.0625,-8.0625c2.63582,-2.63581 2.63582,-6.66706 0,-9.30288c-1.98978,-1.98978 -3.97956,-1.91226 -6.61538,-1.24038c-1.98978,0.67188 -3.38522,0.69772 -5.375,-0.62019l-2.89423,-2.6875c3.38522,-3.92788 6.27945,-8.19171 8.68269,-12.81731c0.62019,0.87861 1.00781,2.01563 1.44712,2.89423c0.67188,3.30769 1.9381,5.32332 3.92788,5.99519c3.30769,1.31791 6.74459,0 8.0625,-3.30769l3.92788,-9.92308c1.31791,-3.30769 0,-6.74459 -3.30769,-8.0625c-1.98978,-0.67187 -4.67728,-0.49099 -5.99519,0.82692c-1.00781,1.00781 -2.32572,0.98197 -3.51442,1.03365c1.44712,-4.65144 2.29988,-9.45793 2.6875,-14.47115l3.51442,0.20673c1.98978,0 3.25601,1.31791 3.92788,3.30769c1.31791,1.98978 3.35938,3.92788 5.99519,3.92788c3.97957,0 6.61538,-2.63581 6.61538,-6.61538v-11.37019c0,-3.97956 -2.63581,-6.61538 -6.61538,-6.61538c-2.63581,0 -4.67728,1.31791 -5.99519,3.30769c-0.67187,1.31791 -1.9381,2.63582 -3.92788,3.30769h-3.72115c-0.41346,-5.09074 -1.1887,-9.97476 -2.6875,-14.67788c1.08534,0.10337 2.22236,0.56851 3.10096,1.44712c1.98978,1.31791 4.6256,2.14483 6.61538,0.82692c3.30769,-1.31791 4.6256,-4.75481 3.30769,-8.0625l-3.92788,-9.92308c-1.31791,-3.30769 -4.75481,-4.6256 -8.0625,-3.30769c-1.98978,0.67188 -3.25601,2.73919 -3.92788,5.375c0,1.4988 -0.41346,2.55829 -1.44712,3.30769c-2.3774,-4.57392 -5.34916,-8.73437 -8.68269,-12.61058l2.89423,-2.6875c1.98978,-0.67187 4.05709,-0.67187 5.375,0c2.63582,0.67188 4.6256,0.12921 6.61538,-1.86058c2.63582,-2.63581 2.63582,-6.66706 0,-9.30288l-8.0625,-8.0625c-2.63581,-2.63581 -6.66706,-2.63581 -9.30288,0c-1.98978,1.98978 -1.91226,3.97957 -1.24038,6.61538c0,1.31791 0.07753,3.4369 -1.24038,4.75481l-2.6875,2.89423c-3.74699,-3.15264 -7.82993,-5.78846 -12.19712,-8.0625c0.87861,-0.62019 2.01563,-1.00781 2.89423,-1.44712c3.30769,-0.67187 5.32332,-1.9381 5.99519,-3.92788c1.31791,-3.30769 0,-6.74459 -3.30769,-8.0625l-9.92308,-3.92788c-3.30769,-1.31791 -6.74459,0 -8.0625,3.30769c-0.67187,1.98978 -0.49099,4.67728 0.82692,5.99519c1.05949,1.05949 1.57632,2.50661 1.44712,3.72115c-4.78065,-1.52464 -9.71635,-2.50661 -14.88462,-2.89423l0.20673,-3.51442c0,-1.98978 1.31791,-3.25601 3.30769,-3.92788c1.98978,-1.31791 3.92788,-3.35937 3.92788,-5.99519c0,-3.97956 -2.63581,-6.61538 -6.61538,-6.61538zM86,33.07692c29.30409,0 52.92308,23.61899 52.92308,52.92308c0,29.30409 -23.61899,52.92308 -52.92308,52.92308c-29.30408,0 -52.92308,-23.61899 -52.92308,-52.92308c0,-29.30408 23.61899,-52.92308 52.92308,-52.92308zM86,46.30769c-3.64363,0 -6.61538,2.97176 -6.61538,6.61538c0,3.64363 2.97176,6.61538 6.61538,6.61538c3.64363,0 6.61538,-2.97176 6.61538,-6.61538c0,-3.64363 -2.97176,-6.61538 -6.61538,-6.61538zM62.84615,56.23077c-3.64363,0 -6.61538,2.97176 -6.61538,6.61538c0,3.64363 2.97176,6.61538 6.61538,6.61538c3.64363,0 6.61538,-2.97176 6.61538,-6.61538c0,-3.64363 -2.97176,-6.61538 -6.61538,-6.61538zM109.15385,56.23077c-3.64363,0 -6.61538,2.97176 -6.61538,6.61538c0,3.64363 2.97176,6.61538 6.61538,6.61538c3.64363,0 6.61538,-2.97176 6.61538,-6.61538c0,-3.64363 -2.97176,-6.61538 -6.61538,-6.61538zM52.92308,79.38462c-3.64363,0 -6.61538,2.97176 -6.61538,6.61538c0,3.64363 2.97176,6.61538 6.61538,6.61538c3.64363,0 6.61538,-2.97176 6.61538,-6.61538c0,-3.64363 -2.97176,-6.61538 -6.61538,-6.61538zM86,79.38462c-3.64363,0 -6.61538,2.97176 -6.61538,6.61538c0,3.64363 2.97176,6.61538 6.61538,6.61538c3.64363,0 6.61538,-2.97176 6.61538,-6.61538c0,-3.64363 -2.97176,-6.61538 -6.61538,-6.61538zM119.07692,79.38462c-3.64363,0 -6.61538,2.97176 -6.61538,6.61538c0,3.64363 2.97176,6.61538 6.61538,6.61538c3.64363,0 6.61538,-2.97176 6.61538,-6.61538c0,-3.64363 -2.97176,-6.61538 -6.61538,-6.61538zM62.84615,102.53846c-3.64363,0 -6.61538,2.97176 -6.61538,6.61538c0,3.64363 2.97176,6.61538 6.61538,6.61538c3.64363,0 6.61538,-2.97176 6.61538,-6.61538c0,-3.64363 -2.97176,-6.61538 -6.61538,-6.61538zM109.15385,102.53846c-3.64363,0 -6.61538,2.97176 -6.61538,6.61538c0,3.64363 2.97176,6.61538 6.61538,6.61538c3.64363,0 6.61538,-2.97176 6.61538,-6.61538c0,-3.64363 -2.97176,-6.61538 -6.61538,-6.61538zM86,112.46154c-3.64363,0 -6.61538,2.97176 -6.61538,6.61538c0,3.64363 2.97176,6.61538 6.61538,6.61538c3.64363,0 6.61538,-2.97176 6.61538,-6.61538c0,-3.64363 -2.97176,-6.61538 -6.61538,-6.61538z"></path></g><path d="" fill="none"></path></g></g></svg>